<svg xmlns="http://www.w3.org/2000/svg" viewBox="0 0 24 24"><path d="M12 2.2c3.2 0 3.6 0 4.8.1 1.2.1 2 .3 2.5.5.6.2 1.1.5 1.6 1s.7 1 .9 1.6c.2.5.4 1.3.5 2.5.1 1.2.1 1.6.1 4.8s0 3.6-.1 4.8c-.1 1.2-.3 2-.5 2.5-.2.6-.5 1.1-1 1.6s-1 .7-1.6.9c-.5.2-1.3.4-2.5.5-1.2.1-1.6.1-4.8.1s-3.6 0-4.8-.1c-1.2-.1-2-.3-2.5-.5-.6-.2-1.1-.5-1.6-1s-.7-1-.9-1.6c-.2-.5-.4-1.3-.5-2.5C2.2 15.6 2.2 15.2 2.2 12s0-3.6.1-4.8c.1-1.2.3-2 .5-2.5.2-.6.5-1.1 1-1.6s1-.7 1.6-.9c.5-.2 1.3-.4 2.5-.5C8.4 2.2 8.8 2.2 12 2.2m0-2.2C8.7 0 8.3 0 7.1.1 5.8.2 4.7.4 3.9.7 3.1 1 2.4 1.4 1.8 2 .9 2.9.5 4 .2 4.9c-.3.9-.5 2-.6 3.2C-.5 9.3-.5 9.7-.5 12s0 2.7.1 3.9c.1 1.2.3 2.3.6 3.2.3.9.7 2 1.6 2.9.6.6 1.3 1 2.1 1.3.8.3 1.9.5 3.2.6C8.3 24 8.7 24 12 24s3.7 0 4.9-.1c1.3-.1 2.4-.3 3.2-.6.9-.3 1.5-.7 2.1-1.3.9-.9 1.3-2 1.6-2.9.3-.9.5-2 .6-3.2.1-1.2.1-1.6.1-4s0-2.7-.1-3.9c-.1-1.2-.3-2.3-.6-3.2-.3-.9-.7-2-1.6-2.9-.6-.6-1.3-1-2.1-1.3-.8-.3-1.9-.5-3.2-.6C15.7 0 15.3 0 12 0z"/><circle cx="12" cy="12" r="3.2"/><circle cx="18.4" cy="5.6" r="1.4"/></svg>